<svg width="25" height="25" viewBox="0 0 25 25" fill="none" xmlns="http://www.w3.org/2000/svg">
<circle cx="12.5" cy="12.5" r="12" fill="white" stroke="#5DAAFF"/>
<path d="M16.4365 6C16.3349 6.00081 16.2378 6.04182 16.1664 6.11406L6.65665 15.6245C6.60381 15.679 6.5683 15.7479 6.5546 15.8226L6.00826 18.5364C5.99516 18.5986 5.99767 18.663 6.01556 18.7239C6.03345 18.7849 6.06615 18.8404 6.11076 18.8856C6.15537 18.9308 6.21048 18.9643 6.27117 18.983C6.33186 19.0017 6.39624 19.005 6.45854 18.9928L9.17817 18.4464C9.25284 18.4327 9.32177 18.3972 9.37628 18.3443L18.886 8.8339C18.9221 8.79817 18.9508 8.75563 18.9704 8.70873C18.9899 8.66184 19 8.61153 19 8.56072C19 8.50991 18.9899 8.4596 18.9704 8.41271C18.9508 8.36581 18.9221 8.32326 18.886 8.28753L16.7127 6.11406C16.6582 6.06121 16.5893 6.0257 16.5146 6.012C16.489 6.00536 16.4629 6.00128 16.4365 6ZM16.4425 6.93061L18.0694 8.55771L8.91395 17.7079L6.87872 18.1221L7.28097 16.0928L16.4425 6.93061Z" fill="#5DAAFF"/>
</svg>
