<svg width="20" height="20" viewBox="0 0 20 20" fill="none" xmlns="http://www.w3.org/2000/svg">
<path d="M2.275 14.5375L1.74467 14.0072L1.60725 14.1446L1.55386 14.3315L2.275 14.5375ZM14.8125 2L15.3428 1.46967L14.8125 0.93934L14.2822 1.46967L14.8125 2ZM18 5.1875L18.5303 5.71783L19.0607 5.1875L18.5303 4.65717L18 5.1875ZM5.4625 17.725L5.66854 18.4461L5.85541 18.3928L5.99283 18.2553L5.4625 17.725ZM1 19L0.278857 18.794C0.20403 19.0559 0.277071 19.3377 0.46967 19.5303C0.662268 19.7229 0.944145 19.796 1.20604 19.7211L1 19ZM2.80533 15.0678L15.3428 2.53033L14.2822 1.46967L1.74467 14.0072L2.80533 15.0678ZM14.2822 2.53033L17.4697 5.71783L18.5303 4.65717L15.3428 1.46967L14.2822 2.53033ZM17.4697 4.65717L4.93217 17.1947L5.99283 18.2553L18.5303 5.71783L17.4697 4.65717ZM5.25646 17.0039L0.793959 18.2789L1.20604 19.7211L5.66854 18.4461L5.25646 17.0039ZM1.72114 19.206L2.99614 14.7435L1.55386 14.3315L0.278857 18.794L1.72114 19.206Z" fill="#5DAAFF"/>
</svg>
