<svg width="50" height="50" viewBox="0 0 50 50" fill="none" xmlns="http://www.w3.org/2000/svg">
<g clip-path="url(#clip0_120_99)">
<path d="M3.12586 3.40269C-0.803304 7.48394 0.000862658 11.8194 0.000862658 24.9902C0.000862658 35.9277 -1.90747 46.8923 8.08003 49.4735C11.1988 50.2756 38.8321 50.2756 41.9467 49.4693C46.105 48.3964 49.4883 45.0235 49.9508 39.1423C50.0154 38.3214 50.0154 11.6735 49.9488 10.836C49.4571 4.57144 45.6008 0.961022 40.5196 0.229772C39.355 0.0610219 39.1217 0.0110219 33.1467 0.00060527C11.9529 0.0110219 7.30711 -0.932728 3.12586 3.40269Z" fill="url(#paint0_linear_120_99)"/>
<path d="M24.9963 6.53955C17.4318 6.53955 10.2484 5.86663 7.50468 12.9083C6.37134 15.8166 6.53593 19.5937 6.53593 25.002C6.53593 29.7479 6.38384 34.2083 7.50468 37.0937C10.2422 44.1395 17.4838 43.4645 24.9922 43.4645C32.2359 43.4645 39.7047 44.2187 42.4818 37.0937C43.6172 34.1562 43.4505 30.4354 43.4505 25.002C43.4505 17.7895 43.8484 13.1333 40.3505 9.63746C36.8088 6.0958 32.0193 6.53955 24.988 6.53955H24.9963ZM23.3422 9.86663C39.1213 9.84163 41.1297 8.08746 40.0213 32.4562C39.6276 41.075 33.0651 40.1291 24.9984 40.1291C10.2901 40.1291 9.86718 39.7083 9.86718 24.9937C9.86718 10.1083 11.0338 9.87496 23.3422 9.86246V9.86663ZM34.8505 12.9312C33.6276 12.9312 32.6359 13.9229 32.6359 15.1458C32.6359 16.3687 33.6276 17.3604 34.8505 17.3604C36.0734 17.3604 37.0651 16.3687 37.0651 15.1458C37.0651 13.9229 36.0734 12.9312 34.8505 12.9312ZM24.9963 15.5208C19.7609 15.5208 15.5172 19.7666 15.5172 25.002C15.5172 30.2375 19.7609 34.4812 24.9963 34.4812C30.2318 34.4812 34.4734 30.2375 34.4734 25.002C34.4734 19.7666 30.2318 15.5208 24.9963 15.5208ZM24.9963 18.8479C33.1318 18.8479 33.1422 31.1562 24.9963 31.1562C16.863 31.1562 16.8505 18.8479 24.9963 18.8479Z" fill="white"/>
</g>
<defs>
<linearGradient id="paint0_linear_120_99" x1="3.22174" y1="46.807" x2="49.6914" y2="6.58806" gradientUnits="userSpaceOnUse">
<stop stop-color="#FFDD55"/>
<stop offset="0.5" stop-color="#FF543E"/>
<stop offset="1" stop-color="#C837AB"/>
</linearGradient>
<clipPath id="clip0_120_99">
<rect width="50" height="50" fill="white"/>
</clipPath>
</defs>
</svg>
