<svg width="325" height="207" viewBox="0 0 325 207" fill="none" xmlns="http://www.w3.org/2000/svg">
<path d="M276.051 161.811L278.363 178.037C278.775 180.92 276.54 183.501 273.634 183.501C271.723 183.501 269.994 182.36 269.242 180.6L261.203 161.813L266.891 157.53L276.051 161.811Z" fill="#ECBD83"/>
<path d="M276.051 161.811H261.204L257.492 153.135H274.814L276.051 161.811Z" fill="#E2A975"/>
<path d="M162.232 109.758H49.7598V36.0131L53.9791 23.7407C55.335 23.2606 56.7913 23 58.309 23H149.242C156.415 23 162.232 28.8274 162.232 36.0131V109.758Z" fill="#DBEAFF"/>
<path d="M279.144 109.758H166.426V36.0131L170.891 23.7407C172.245 23.2606 173.704 23 175.221 23H266.152C273.327 23 279.144 28.8274 279.144 36.0131V109.758Z" fill="#DBEAFF"/>
<path d="M162.231 36.0131V109.758H170.891V23.7407C165.857 25.5341 162.231 30.356 162.231 36.0131Z" fill="#C3DDFF"/>
<path d="M45.3193 36.0131V109.758H53.9792V23.7407C48.9467 25.5341 45.3193 30.356 45.3193 36.0131Z" fill="#C3DDFF"/>
<path d="M292.134 62.0413H286.37C282.186 62.0413 278.599 65.0391 277.85 69.1634L270.484 109.756H53.979L46.6115 69.1634C45.8639 65.0391 42.2775 62.0413 38.093 62.0413H37.0525L33.5664 66.7893L41.0281 141.595C41.4521 146.05 45.186 149.45 49.649 149.45H280.361L289.06 144.456L296.443 66.7914C296.685 64.2429 294.686 62.0413 292.134 62.0413Z" fill="#C3DDFF"/>
<path d="M48.4118 161.811L46.0993 178.037C45.6876 180.92 47.9202 183.501 50.8287 183.501C52.7397 183.501 54.4684 182.36 55.2201 180.6L63.2573 161.813L56.6764 157.949L48.4118 161.811Z" fill="#ECBD83"/>
<path d="M62.6409 92.4053H153.572C158.354 92.4053 162.232 96.2895 162.232 101.081V114.096C162.232 118.887 158.354 122.771 153.572 122.771H62.6409C57.8563 122.771 53.979 118.887 53.979 114.096V101.081C53.979 96.2895 57.8563 92.4053 62.6409 92.4053Z" fill="#C3DDFF"/>
<path d="M62.6409 101.081V92.4053C57.8583 92.4053 53.979 96.2895 53.979 101.081V114.096C53.979 118.887 57.8583 122.771 62.6409 122.771H153.572C158.354 122.771 162.232 118.887 162.232 114.096H75.6308C68.4558 114.096 62.6409 108.268 62.6409 101.081Z" fill="#A4CCFF"/>
<path d="M170.891 92.4053H261.822C266.607 92.4053 270.482 96.2895 270.482 101.081V114.096C270.482 118.887 266.605 122.771 261.822 122.771H170.891C166.109 122.771 162.231 118.887 162.231 114.096V101.081C162.231 96.2895 166.109 92.4053 170.891 92.4053Z" fill="#C3DDFF"/>
<path d="M170.891 101.081V92.4053C166.109 92.4053 162.231 96.2895 162.231 101.081V114.096C162.231 118.887 166.109 122.771 170.891 122.771H261.822C266.605 122.771 270.482 118.887 270.482 114.096H183.881C176.708 114.096 170.891 108.268 170.891 101.081Z" fill="#A4CCFF"/>
<path d="M289.021 144.46H52.7623C48.2972 144.46 44.5654 141.06 44.1414 136.607L37.0525 62.0413H32.3293C29.7772 62.0413 27.7781 64.2429 28.0198 66.7893L35.4815 145.283C35.9034 149.735 39.6373 153.135 44.1025 153.135H280.361C284.826 153.135 288.558 149.735 288.982 145.283L289.06 144.456C289.047 144.456 289.035 144.46 289.021 144.46Z" fill="#A4CCFF"/>
<path d="M88.6208 53.366C88.6208 55.7606 86.6812 57.7037 84.2909 57.7037C81.8986 57.7037 79.9609 55.7606 79.9609 53.366C79.9609 50.9694 81.8986 49.0283 84.2909 49.0283C86.6812 49.0283 88.6208 50.9694 88.6208 53.366Z" fill="#C3DDFF"/>
<path d="M127.591 53.366C127.591 55.7606 125.653 57.7037 123.261 57.7037C120.87 57.7037 118.931 55.7606 118.931 53.366C118.931 50.9694 120.87 49.0283 123.261 49.0283C125.653 49.0283 127.591 50.9694 127.591 53.366Z" fill="#C3DDFF"/>
<path d="M205.533 53.366C205.533 55.7606 203.594 57.7037 201.203 57.7037C198.811 57.7037 196.874 55.7606 196.874 53.366C196.874 50.9694 198.811 49.0283 201.203 49.0283C203.594 49.0283 205.533 50.9694 205.533 53.366Z" fill="#C3DDFF"/>
<path d="M244.503 53.366C244.503 55.7606 242.566 57.7037 240.173 57.7037C237.783 57.7037 235.843 55.7606 235.843 53.366C235.843 50.9694 237.783 49.0283 240.173 49.0283C242.566 49.0283 244.503 50.9694 244.503 53.366Z" fill="#C3DDFF"/>
<path d="M48.4121 161.811H63.2576L66.971 153.135H49.6492L48.4121 161.811Z" fill="#E2A975"/>
</svg>
