<svg width="50" height="50" viewBox="0 0 50 50" fill="none" xmlns="http://www.w3.org/2000/svg">
<g clip-path="url(#clip0_135_77)">
<rect width="50" height="50" rx="8" fill="url(#paint0_linear_135_77)"/>
<path d="M23.7634 22.1969C25.7675 20.4863 28.4239 19.5443 31.2431 19.5443C31.723 19.5443 32.099 19.1046 31.9386 18.6522C30.478 14.5337 25.9965 11.5352 20.6941 11.5352C14.2064 11.5352 8.94727 16.0239 8.94727 21.5609C8.94727 24.1406 10.0892 26.4922 11.9647 28.2687C12.3841 28.6661 12.5978 29.2457 12.4724 29.8097C12.1862 31.098 13.5721 32.1091 14.7116 31.4432L15.2073 31.1535C15.6669 30.8849 16.2212 30.8452 16.7303 31.001C17.9686 31.38 19.3031 31.5868 20.6942 31.5868C20.8955 31.5868 21.0318 31.3843 20.9713 31.1923C20.7245 30.408 20.5967 29.5899 20.5967 28.7538C20.5966 26.2683 21.7213 23.9398 23.7634 22.1969ZM24.8216 16.2138C25.6521 16.2138 26.3254 16.8871 26.3254 17.7176C26.3254 18.548 25.652 19.2214 24.8216 19.2214C23.991 19.2214 23.3178 18.548 23.3178 17.7176C23.3178 16.8871 23.991 16.2138 24.8216 16.2138ZM16.2997 19.2216C15.4691 19.2216 14.7959 18.5482 14.7959 17.7178C14.7959 16.8873 15.4692 16.214 16.2997 16.214C17.1302 16.214 17.8035 16.8873 17.8035 17.7178C17.8035 18.5482 17.1303 19.2216 16.2997 19.2216Z" fill="white"/>
<path d="M31.2429 20.3813C25.8253 20.3813 21.4336 24.1296 21.4336 28.7534C21.4336 33.3772 25.8253 37.1255 31.2429 37.1255C32.4045 37.1255 33.5188 36.9529 34.5529 36.6364C34.978 36.5063 35.4409 36.5393 35.8248 36.7637L36.2387 37.0056C37.1902 37.5616 38.3475 36.7173 38.1085 35.6415C38.0038 35.1706 38.1822 34.6866 38.5325 34.3548C40.0986 32.8713 41.0522 30.9075 41.0522 28.7534C41.0522 24.1296 36.6604 20.3813 31.2429 20.3813ZM27.7963 24.2883C28.4899 24.2883 29.0521 24.8505 29.0521 25.544C29.0521 26.2376 28.4899 26.7998 27.7963 26.7998C27.1027 26.7998 26.5405 26.2376 26.5405 25.544C26.5405 24.8505 27.1028 24.2883 27.7963 24.2883ZM34.9126 26.7999C34.2191 26.7999 33.6569 26.2377 33.6569 25.5441C33.6569 24.8506 34.2191 24.2884 34.9126 24.2884C35.6062 24.2884 36.1684 24.8506 36.1684 25.5441C36.1684 26.2377 35.6062 26.7999 34.9126 26.7999Z" fill="white"/>
</g>
<defs>
<linearGradient id="paint0_linear_135_77" x1="25" y1="0" x2="25" y2="50" gradientUnits="userSpaceOnUse">
<stop stop-color="#03DC6B"/>
<stop offset="1" stop-color="#06C462"/>
</linearGradient>
<clipPath id="clip0_135_77">
<rect width="50" height="50" fill="white"/>
</clipPath>
</defs>
</svg>
