<svg width="50" height="50" viewBox="0 0 50 50" fill="none" xmlns="http://www.w3.org/2000/svg">
<g clip-path="url(#clip0_120_103)">
<rect width="50" height="50" rx="8" fill="url(#paint0_linear_120_103)"/>
<path d="M23.7634 22.1966C25.7675 20.4861 28.4239 19.5441 31.2431 19.5441V19.5441C31.723 19.5441 32.099 19.1043 31.9386 18.6519C30.478 14.5334 25.9965 11.5349 20.6941 11.5349C14.2064 11.5349 8.94727 16.0237 8.94727 21.5607C8.94727 24.1403 10.0892 26.492 11.9647 28.2685C12.3841 28.6658 12.5978 29.2454 12.4724 29.8094V29.8094C12.1862 31.0977 13.5721 32.1089 14.7116 31.443L15.2073 31.1533C15.6669 30.8846 16.2212 30.845 16.7303 31.0008C17.9686 31.3798 19.3031 31.5865 20.6942 31.5865V31.5865C20.8955 31.5865 21.0318 31.384 20.9713 31.192C20.7245 30.4078 20.5967 29.5896 20.5967 28.7535C20.5966 26.2681 21.7213 23.9396 23.7634 22.1966ZM24.8216 16.2135C25.6521 16.2135 26.3254 16.8869 26.3254 17.7173C26.3254 18.5478 25.652 19.2211 24.8216 19.2211C23.991 19.2211 23.3178 18.5478 23.3178 17.7173C23.3178 16.8869 23.991 16.2135 24.8216 16.2135ZM16.2997 19.2213C15.4691 19.2213 14.7959 18.548 14.7959 17.7175C14.7959 16.8871 15.4692 16.2137 16.2997 16.2137C17.1302 16.2137 17.8035 16.8871 17.8035 17.7175C17.8035 18.548 17.1303 19.2213 16.2997 19.2213Z" fill="white"/>
<path d="M31.2431 20.3813C25.8255 20.3813 21.4338 24.1296 21.4338 28.7534C21.4338 33.3772 25.8255 37.1255 31.2431 37.1255C32.4048 37.1255 33.5191 36.9529 34.5532 36.6364C34.9783 36.5063 35.4412 36.5393 35.825 36.7637L36.239 37.0056C37.1904 37.5616 38.3478 36.7173 38.1087 35.6415V35.6415C38.004 35.1706 38.1824 34.6866 38.5327 34.3548C40.0989 32.8713 41.0524 30.9075 41.0524 28.7534C41.0524 24.1296 36.6606 20.3813 31.2431 20.3813ZM27.7965 24.2883C28.4901 24.2883 29.0523 24.8505 29.0523 25.544C29.0523 26.2376 28.4901 26.7998 27.7965 26.7998C27.103 26.7998 26.5408 26.2376 26.5408 25.544C26.5408 24.8505 27.1031 24.2883 27.7965 24.2883ZM34.9129 26.7999C34.2193 26.7999 33.6571 26.2377 33.6571 25.5441C33.6571 24.8506 34.2193 24.2884 34.9129 24.2884C35.6064 24.2884 36.1686 24.8506 36.1686 25.5441C36.1686 26.2377 35.6064 26.7999 34.9129 26.7999Z" fill="white"/>
</g>
<defs>
<linearGradient id="paint0_linear_120_103" x1="25" y1="0" x2="25" y2="50" gradientUnits="userSpaceOnUse">
<stop stop-color="#03DC6B"/>
<stop offset="1" stop-color="#06C462"/>
</linearGradient>
<clipPath id="clip0_120_103">
<rect width="50" height="50" fill="white"/>
</clipPath>
</defs>
</svg>
