<svg width="50" height="50" viewBox="0 0 50 50" fill="none" xmlns="http://www.w3.org/2000/svg">
<g clip-path="url(#clip0_120_93)">
<rect x="0.390625" width="50" height="50" rx="8" fill="#7AD06D"/>
<path d="M24.5085 5.97906C14.4501 6.45798 6.51254 14.8347 6.54306 24.9046C6.55235 27.9716 7.29278 30.8665 8.59894 33.4243L6.59352 43.1589C6.48504 43.6854 6.95995 44.1465 7.48306 44.0226L17.0218 41.7627C19.4724 42.9834 22.225 43.6885 25.1382 43.733C35.4189 43.89 43.9912 35.7269 44.3116 25.45C44.6551 14.4339 35.5632 5.45258 24.5085 5.97906ZM35.8903 35.3044C33.0968 38.0979 29.3826 39.6363 25.432 39.6363C23.1188 39.6363 20.9042 39.1173 18.8494 38.0938L17.521 37.4321L11.6728 38.8177L12.9038 32.8418L12.2494 31.5603C11.1827 29.4712 10.6418 27.2122 10.6418 24.8461C10.6418 20.8954 12.1802 17.1814 14.9737 14.3878C17.7423 11.6192 21.517 10.0558 25.4323 10.0558C29.3829 10.0559 33.0969 11.5943 35.8904 14.3877C38.6838 17.1812 40.2223 20.8953 40.2224 24.8458C40.2223 28.7612 38.6588 32.536 35.8903 35.3044Z" fill="white"/>
<path d="M34.5993 28.9425L30.9405 27.892C30.4594 27.7539 29.9414 27.8903 29.5909 28.2475L28.6962 29.1591C28.3189 29.5434 27.7465 29.6669 27.2471 29.4649C25.5163 28.7645 21.8755 25.5273 20.9457 23.9081C20.6774 23.441 20.7218 22.857 21.0511 22.4309L21.8323 21.4203C22.1383 21.0243 22.2029 20.4926 22.0005 20.0349L20.4612 16.5533C20.0925 15.7194 19.0269 15.4767 18.3307 16.0655C17.3095 16.9291 16.0979 18.2416 15.9506 19.6956C15.691 22.2591 16.7904 25.4906 20.9478 29.3708C25.7507 33.8536 29.5969 34.4458 32.1011 33.8392C33.5214 33.4952 34.6565 32.1159 35.3729 30.9867C35.8613 30.2167 35.4757 29.1942 34.5993 28.9425Z" fill="white"/>
</g>
<defs>
<clipPath id="clip0_120_93">
<rect width="50" height="50" fill="white"/>
</clipPath>
</defs>
</svg>
